<svg xmlns="http://www.w3.org/2000/svg" width="4096" height="4096" viewBox="0 0 4096 4096" version="1.1"><path d="M 3155 945.032 C 3150.325 945.514, 3143.800 946.129, 3140.500 946.398 C 3126.637 947.530, 3104.765 950.969, 3083.500 955.360 C 3027.441 966.935, 2990.052 977.788, 2939 997.302 C 2846.237 1032.762, 2769 1070.169, 2682 1121.773 C 2668.525 1129.766, 2650.525 1140.866, 2642 1146.440 C 2633.475 1152.014, 2624.378 1157.908, 2621.785 1159.537 C 2619.191 1161.167, 2608.841 1167.657, 2598.785 1173.960 C 2588.728 1180.262, 2578.322 1187.125, 2575.660 1189.210 C 2572.998 1191.294, 2570.148 1193, 2569.326 1193 C 2568.504 1193, 2565.282 1191.026, 2562.166 1188.614 C 2547.744 1177.448, 2484.465 1144.134, 2437 1122.719 C 2360.312 1088.118, 2271.147 1061.172, 2188.460 1047.609 C 2165.551 1043.851, 2118.878 1039.114, 2076.500 1036.245 C 2059.147 1035.070, 1984.678 1035.515, 1961 1036.936 C 1931.452 1038.708, 1931.094 1038.733, 1917 1039.945 C 1861.074 1044.757, 1778.447 1061.085, 1727 1077.492 C 1687.579 1090.064, 1678.896 1093.043, 1654.500 1102.371 C 1625.110 1113.608, 1550.045 1148.853, 1526 1162.704 C 1521.325 1165.398, 1512.775 1170.263, 1507 1173.516 C 1486.607 1185.004, 1462.052 1200.943, 1419.500 1230.315 C 1400.028 1243.756, 1360.764 1274.628, 1345 1288.893 C 1310.310 1320.284, 1290.257 1339.874, 1265 1367.048 C 1245.910 1387.587, 1240.244 1394.122, 1223.856 1414.500 C 1177.321 1472.364, 1141.447 1528.082, 1105.437 1598.422 C 1061.721 1683.816, 1033.211 1768.084, 1013.425 1870.391 C 1007.406 1901.512, 1002.190 1947.492, 999.913 1989.500 C 998.613 2013.486, 999.199 2087.953, 1000.989 2126.180 C 1001.690 2141.158, 1001.682 2148.706, 1000.962 2150.600 C 1000.389 2152.107, 997.124 2156.076, 993.706 2159.420 C 968.715 2183.871, 922.974 2232.674, 901.780 2257.500 C 900.371 2259.150, 895.676 2264.550, 891.347 2269.500 C 879.607 2282.923, 851.555 2317.747, 837.274 2336.626 C 801.477 2383.945, 758.808 2448.319, 736.274 2489 C 708.476 2539.186, 706.026 2543.996, 690.195 2579.500 C 678.850 2604.941, 671.146 2625.014, 659.683 2659 C 634.740 2732.949, 626.994 2819.676, 639.562 2884.274 C 643.970 2906.928, 651.018 2926.956, 662.515 2949.500 C 678.516 2980.877, 688.674 2994.890, 713.850 3020.317 C 736.792 3043.489, 754.785 3057.160, 779.148 3069.930 C 800.368 3081.052, 833.667 3093.088, 866.500 3101.504 C 880.142 3105, 911.173 3110.187, 929 3111.951 C 934.775 3112.522, 944.130 3113.442, 949.789 3113.995 C 975.037 3116.461, 1049.435 3114.588, 1088 3110.514 C 1149.246 3104.044, 1189.349 3096.337, 1261.500 3077.172 C 1306.570 3065.201, 1376.328 3041.466, 1432.433 3019.014 C 1457.447 3009.005, 1519.858 2981.799, 1541 2971.690 C 1547.325 2968.665, 1562.052 2961.701, 1573.726 2956.214 C 1590.997 2948.095, 1634.134 2926.076, 1656 2914.216 C 1666.894 2908.307, 1700.231 2889.635, 1719.500 2878.648 C 1731.050 2872.063, 1746.125 2863.528, 1753 2859.681 C 1775.317 2847.195, 1853.548 2799.910, 1909.798 2764.908 C 1915.462 2761.384, 1928.962 2752.680, 1939.798 2745.568 C 1950.634 2738.455, 1965.125 2729.089, 1972 2724.754 C 1996.885 2709.063, 2086.723 2649.609, 2094 2644.016 C 2095.925 2642.537, 2109.497 2633.164, 2124.161 2623.187 C 2148.975 2606.305, 2164.272 2595.473, 2193 2574.442 C 2199.325 2569.812, 2211.925 2560.601, 2221 2553.974 C 2230.075 2547.347, 2243.046 2537.779, 2249.823 2532.712 C 2256.601 2527.646, 2266.367 2520.350, 2271.526 2516.500 C 2291.102 2501.890, 2331.129 2470.790, 2370 2439.988 C 2382.925 2429.746, 2395.790 2419.596, 2398.590 2417.433 C 2403.308 2413.787, 2411.834 2406.897, 2429.641 2392.338 C 2451.208 2374.707, 2497.811 2335.272, 2515.065 2320.054 C 2525.778 2310.606, 2549.593 2289.789, 2561.592 2279.384 C 2573.615 2268.960, 2606.230 2239.962, 2607.500 2238.569 C 2609.012 2236.910, 2636.715 2211.788, 2649.044 2200.896 C 2663.529 2188.098, 2684.052 2168.944, 2703 2150.536 C 2711.525 2142.255, 2724.575 2129.872, 2732 2123.019 C 2749.330 2107.025, 2791.814 2065.212, 2858.505 1998.512 C 2922.822 1934.187, 2940.709 1915.519, 2986 1865.456 C 2996.747 1853.576, 3015.152 1833.766, 3018.012 1831 C 3018.296 1830.725, 3023.664 1824.875, 3029.941 1818 C 3040.947 1805.945, 3049.937 1796.303, 3063.970 1781.500 C 3067.620 1777.650, 3074.934 1769.325, 3080.224 1763 C 3085.513 1756.675, 3094.828 1745.650, 3100.924 1738.500 C 3112.381 1725.061, 3119.381 1716.545, 3146.958 1682.500 C 3190.632 1628.582, 3202.052 1613.718, 3239.783 1561.681 C 3292.134 1489.481, 3339.689 1409.580, 3371.720 1340 C 3380.394 1321.158, 3397.190 1278.713, 3404.533 1257.083 C 3413.488 1230.702, 3421.278 1196.127, 3424.042 1170.493 C 3425.348 1158.387, 3425.330 1137.188, 3424.001 1121.256 C 3421.252 1088.315, 3410.432 1054.759, 3395.328 1032.331 C 3386.428 1019.117, 3372.117 1003.797, 3356.500 990.767 C 3349.991 985.336, 3335.308 976.534, 3322.725 970.521 C 3295.175 957.355, 3270.783 950.497, 3237 946.420 C 3221.411 944.538, 3168.470 943.642, 3155 945.032 M 2923.597 1199.603 C 2893.706 1202.286, 2868.822 1207.539, 2826 1220.204 C 2797.916 1228.511, 2780.116 1235.265, 2745.052 1250.920 C 2714.260 1264.668, 2669.124 1288.721, 2651 1301.040 C 2647.975 1303.096, 2637.400 1310.164, 2627.500 1316.747 C 2591.435 1340.726, 2563.149 1361.314, 2531.073 1386.929 C 2508.997 1404.559, 2471.693 1435.369, 2466.064 1440.622 C 2462.628 1443.829, 2462.628 1443.829, 2458.564 1440.517 C 2443.958 1428.615, 2384.080 1396.185, 2344.054 1378.498 C 2277.734 1349.191, 2194.214 1326.010, 2120.813 1316.538 C 2104.069 1314.377, 2078.171 1312.310, 2050.500 1310.924 C 2012.493 1309.022, 1954.163 1312.065, 1913.500 1318.072 C 1897.439 1320.445, 1849.312 1329.912, 1834.500 1333.612 C 1818.135 1337.700, 1771.512 1351.874, 1757.518 1357.016 C 1683.948 1384.046, 1612.248 1424.589, 1543.555 1478 C 1512.041 1502.504, 1475.509 1536.247, 1450.991 1563.500 C 1431.904 1584.715, 1397.877 1628.303, 1383.089 1650.481 C 1348.851 1701.829, 1319.807 1759.344, 1299.001 1817 C 1279.965 1869.749, 1273.134 1895.728, 1264.509 1948.174 C 1258.343 1985.667, 1257.506 1998.894, 1257.526 2058.500 C 1257.541 2102.534, 1257.894 2117.488, 1259.298 2133.500 C 1261.756 2161.536, 1266.654 2198.417, 1269.989 2214 C 1276.079 2242.455, 1281.236 2261.549, 1290.083 2288.402 C 1296.715 2308.528, 1299.464 2317.892, 1298.889 2318.395 C 1298.675 2318.583, 1294 2320.954, 1288.500 2323.665 C 1283 2326.376, 1257.992 2339.016, 1232.927 2351.754 C 1207.863 2364.492, 1181.988 2377.360, 1175.427 2380.350 C 1168.867 2383.339, 1156.975 2388.806, 1149 2392.498 C 1128.184 2402.134, 1121.576 2405.053, 1102.500 2413.040 C 1093.150 2416.955, 1084.493 2420.804, 1083.263 2421.593 C 1081.063 2423.005, 1080.895 2422.766, 1073.102 2407.205 C 1068.744 2398.501, 1062.855 2386.232, 1060.015 2379.940 C 1049.622 2356.915, 1033.808 2313.017, 1028.550 2292.599 C 1027.714 2289.353, 1026.879 2286.546, 1026.694 2286.361 C 1026.050 2285.717, 1008.021 2306.593, 995.481 2322.500 C 981.095 2340.750, 958.840 2373.528, 948.211 2392.124 C 938.693 2408.773, 926.977 2433.059, 922.460 2445.500 C 912.937 2471.726, 909.157 2497.882, 912.083 2517.308 C 913.385 2525.956, 917.131 2539.410, 919.541 2544.099 C 931.259 2566.895, 952.428 2580.514, 983.151 2585.023 C 993.873 2586.597, 1023.174 2585.806, 1037.441 2583.558 C 1049.265 2581.695, 1075.896 2575.202, 1088.500 2571.110 C 1105.311 2565.651, 1135.190 2554.235, 1147.500 2548.567 C 1150.250 2547.300, 1156.100 2544.772, 1160.500 2542.947 C 1169.955 2539.027, 1229.503 2509.149, 1246 2500.048 C 1260.535 2492.029, 1296.786 2471.443, 1312.500 2462.285 C 1329.983 2452.095, 1362.423 2431.925, 1413 2399.797 C 1424.893 2392.242, 1513.239 2333.345, 1530.500 2321.464 C 1539.850 2315.029, 1556.500 2303.673, 1567.500 2296.231 C 1578.500 2288.788, 1591.325 2279.924, 1596 2276.532 C 1600.675 2273.140, 1610.765 2265.895, 1618.423 2260.432 C 1630.874 2251.550, 1639.188 2245.764, 1668.204 2225.789 C 1672.767 2222.648, 1687.975 2211.745, 1702 2201.560 C 1716.025 2191.374, 1732.450 2179.490, 1738.500 2175.149 C 1744.550 2170.809, 1761.504 2158.312, 1776.176 2147.379 C 1790.849 2136.445, 1808.997 2123, 1816.507 2117.500 C 1824.017 2112, 1836.087 2103.072, 1843.330 2097.660 C 1850.574 2092.248, 1860.269 2085.048, 1864.876 2081.660 C 1869.483 2078.272, 1878.033 2071.716, 1883.876 2067.091 C 1889.719 2062.466, 1909.575 2047.433, 1928 2033.684 C 1946.425 2019.936, 1965.550 2005.597, 1970.500 2001.821 C 2006.654 1974.236, 2027.770 1958.063, 2035.500 1952.036 C 2040.450 1948.177, 2054.850 1937.176, 2067.500 1927.590 C 2104.446 1899.593, 2120.041 1887.546, 2137.500 1873.515 C 2143 1869.095, 2156.695 1858.508, 2167.933 1849.989 C 2179.171 1841.470, 2192.896 1830.890, 2198.433 1826.477 C 2203.970 1822.064, 2214.800 1813.639, 2222.500 1807.753 C 2246.456 1789.442, 2252.100 1785.015, 2265.500 1774.028 C 2276.874 1764.702, 2297.770 1748.361, 2351.500 1706.774 C 2359.200 1700.815, 2366.850 1694.873, 2368.500 1693.571 C 2372.242 1690.617, 2397.929 1670.826, 2404 1666.219 C 2410.235 1661.486, 2444.295 1634.113, 2455.370 1624.933 C 2460.392 1620.771, 2469.675 1613.373, 2476 1608.494 C 2482.325 1603.614, 2492.900 1595.241, 2499.500 1589.886 C 2506.100 1584.532, 2523.168 1570.834, 2537.430 1559.447 C 2551.691 1548.060, 2563.841 1538.342, 2564.430 1537.852 C 2565.018 1537.361, 2570.072 1533.256, 2575.660 1528.730 C 2584.375 1521.670, 2595.674 1512.200, 2640.375 1474.489 C 2644.294 1471.183, 2656.906 1460.383, 2668.403 1450.489 C 2679.899 1440.595, 2694.120 1428.450, 2700.005 1423.500 C 2713.228 1412.379, 2742.423 1386.722, 2750.500 1379.126 C 2753.800 1376.022, 2760.775 1369.690, 2766 1365.054 C 2771.225 1360.418, 2778.277 1353.945, 2781.671 1350.670 C 2787.841 1344.715, 2787.841 1344.715, 2792.171 1346.953 C 2806.946 1354.589, 2816.959 1367.363, 2821.603 1384.500 C 2824.484 1395.129, 2824.248 1418.469, 2821.143 1430 C 2813.476 1458.476, 2799.955 1486.791, 2780.078 1516 C 2776.522 1521.225, 2772.166 1527.621, 2770.398 1530.214 C 2750.420 1559.512, 2713.828 1602.719, 2673.643 1644.463 C 2636.023 1683.544, 2606.540 1712.821, 2584.983 1732.507 C 2567.059 1748.877, 2556.518 1758.395, 2549 1765.003 C 2544.325 1769.111, 2540.275 1772.735, 2540 1773.056 C 2539.725 1773.377, 2534.325 1778.080, 2528 1783.507 C 2521.675 1788.933, 2512.450 1797.066, 2507.500 1801.580 C 2502.550 1806.094, 2495.350 1812.351, 2491.500 1815.484 C 2484.858 1820.890, 2479.102 1825.805, 2467.476 1836 C 2464.654 1838.475, 2454.077 1847.250, 2443.971 1855.500 C 2433.865 1863.750, 2420.625 1874.782, 2414.549 1880.015 C 2408.472 1885.249, 2393.825 1897.386, 2382 1906.987 C 2370.175 1916.587, 2352.799 1930.756, 2343.386 1938.471 C 2333.974 1946.187, 2318.019 1958.800, 2307.931 1966.500 C 2271.433 1994.358, 2242.950 2016.616, 2221.459 2034.073 C 2217.586 2037.219, 2210.798 2042.427, 2206.374 2045.646 C 2201.951 2048.866, 2176.094 2068.185, 2148.916 2088.579 C 2096.449 2127.947, 2048.972 2163.340, 2037.634 2171.536 C 2033.857 2174.266, 2029.229 2177.625, 2027.349 2179 C 2025.468 2180.375, 2020.683 2183.742, 2016.715 2186.482 C 2005.789 2194.025, 1981.902 2211.301, 1969 2220.989 C 1958.600 2228.798, 1930.304 2248.912, 1919.042 2256.500 C 1916.593 2258.150, 1907.267 2264.675, 1898.317 2271 C 1869.024 2291.703, 1857.767 2299.515, 1838.500 2312.513 C 1828.050 2319.564, 1816.575 2327.374, 1813 2329.870 C 1803.234 2336.688, 1733.096 2383.492, 1720.500 2391.596 C 1714.450 2395.489, 1697.350 2406.546, 1682.500 2416.168 C 1667.650 2425.790, 1647.175 2438.857, 1637 2445.205 C 1626.825 2451.554, 1608.150 2463.387, 1595.500 2471.501 C 1569.682 2488.061, 1555.484 2496.876, 1530 2512.167 C 1520.375 2517.942, 1505.300 2527.068, 1496.500 2532.447 C 1477.950 2543.785, 1451.479 2558.950, 1434.500 2567.966 C 1424.057 2573.512, 1410.019 2581.356, 1396 2589.479 C 1357.497 2611.789, 1276.269 2652.177, 1234 2670.028 C 1230.425 2671.538, 1221.425 2675.554, 1214 2678.952 C 1184.115 2692.629, 1151.022 2704.645, 1116 2714.536 C 1113.525 2715.235, 1107 2717.151, 1101.500 2718.795 C 1070.783 2727.973, 1029.153 2735.700, 997.500 2738.100 C 970.561 2740.143, 927.523 2737.322, 910.114 2732.374 C 907.728 2731.695, 907.728 2731.695, 908.290 2747.598 C 909.030 2768.486, 912.549 2782.384, 921.304 2798.990 C 938.023 2830.704, 981.073 2861.542, 1027.246 2874.880 C 1058.295 2883.849, 1080.834 2886.824, 1124 2887.648 C 1156.997 2888.279, 1181.093 2886.697, 1224.704 2881.040 C 1264.198 2875.916, 1278.508 2873.063, 1330 2860.051 C 1377.194 2848.125, 1389.210 2844.652, 1423.483 2833.031 C 1487.803 2811.223, 1518.717 2799.404, 1578 2773.957 C 1613.314 2758.799, 1620.496 2755.620, 1653.500 2740.542 C 1674.249 2731.063, 1724.398 2705.735, 1755.288 2689.134 C 1759.254 2687.003, 1767.675 2682.557, 1774 2679.254 C 1784.835 2673.598, 1820.971 2653.930, 1829.321 2649.144 C 1831.423 2647.940, 1841.773 2641.951, 1852.321 2635.837 C 1862.870 2629.722, 1874.425 2623.036, 1878 2620.978 C 1894.960 2611.219, 1919.067 2596.804, 1938.770 2584.643 C 1945.772 2580.321, 1954.875 2574.754, 1959 2572.271 C 1963.125 2569.789, 1969.200 2566.068, 1972.500 2564.003 C 1975.800 2561.938, 1985.025 2556.202, 1993 2551.256 C 2028.937 2528.967, 2074.384 2499.536, 2094.842 2485.303 C 2102.904 2479.694, 2121.450 2467.028, 2136.056 2457.155 C 2150.662 2447.281, 2170.912 2433.227, 2181.056 2425.923 C 2191.200 2418.619, 2209.850 2405.233, 2222.500 2396.176 C 2235.150 2387.120, 2248.650 2377.383, 2252.500 2374.539 C 2256.350 2371.695, 2267.375 2363.581, 2277 2356.507 C 2293.849 2344.125, 2308.995 2332.492, 2330.410 2315.488 C 2335.959 2311.081, 2345.450 2303.668, 2351.500 2299.013 C 2357.550 2294.358, 2367.900 2286.241, 2374.500 2280.974 C 2381.100 2275.708, 2391.643 2267.371, 2397.930 2262.449 C 2404.216 2257.527, 2414.566 2249.207, 2420.930 2243.959 C 2427.293 2238.711, 2437.675 2230.186, 2444 2225.013 C 2469.947 2203.793, 2529.730 2151.892, 2546.500 2136.026 C 2549.800 2132.904, 2557 2126.373, 2562.500 2121.512 C 2612.049 2077.723, 2692.852 1999.198, 2758.574 1930.966 C 2800.894 1887.031, 2849.689 1831.717, 2877.634 1796 C 2898.125 1769.811, 2926.668 1731.339, 2945.147 1705 C 2963.734 1678.507, 2991.042 1634.868, 3005.221 1609 C 3030.126 1563.564, 3035.033 1553.685, 3049.184 1520.500 C 3065.842 1481.433, 3076.202 1448.392, 3083.514 1411 C 3088.081 1387.649, 3089.953 1368.524, 3089.979 1344.962 C 3090.026 1303.274, 3082.848 1273.987, 3066.784 1250.313 C 3047.052 1221.233, 3023.641 1206.818, 2985.836 1200.468 C 2973.286 1198.360, 2942.248 1197.929, 2923.597 1199.603 M 2871.744 1540.750 C 2866.022 1550.552, 2853.128 1568.745, 2843.571 1580.500 C 2837.758 1587.650, 2828.548 1599.125, 2823.106 1606 C 2814.083 1617.397, 2794.160 1640.494, 2772.214 1665 C 2750.992 1688.697, 2685.306 1755.850, 2668.610 1770.916 C 2664.700 1774.446, 2657.450 1781.204, 2652.500 1785.935 C 2619.609 1817.372, 2581.662 1852.241, 2561.559 1869.500 C 2538.701 1889.124, 2530.565 1896.160, 2527 1899.387 C 2525.075 1901.129, 2516.057 1908.866, 2506.960 1916.579 C 2491.734 1929.490, 2480.172 1939.036, 2437.100 1974.257 C 2417.359 1990.399, 2352.163 2042.739, 2337.078 2054.554 C 2330.796 2059.474, 2319.096 2068.654, 2311.078 2074.953 C 2296.583 2086.340, 2259.336 2115.063, 2234.500 2134.006 C 2222.173 2143.408, 2186.673 2169.861, 2138.329 2205.668 C 2119.367 2219.712, 2098.215 2234.990, 2063.500 2259.716 C 2058.550 2263.242, 2040.550 2275.890, 2023.500 2287.823 C 2006.450 2299.755, 1985.075 2314.743, 1976 2321.127 C 1949.708 2339.625, 1948.229 2340.644, 1933.500 2350.413 C 1919.075 2359.981, 1914.511 2362.958, 1883 2383.350 C 1833.551 2415.352, 1728.277 2481.280, 1705.500 2494.511 C 1696.150 2499.942, 1683.100 2507.515, 1676.500 2511.339 C 1643.103 2530.693, 1557.874 2577.930, 1530.500 2592.260 C 1518.950 2598.306, 1504.576 2605.934, 1498.558 2609.211 C 1492.540 2612.488, 1481.065 2618.339, 1473.058 2622.213 C 1465.051 2626.088, 1451.075 2632.853, 1442 2637.248 C 1412.519 2651.525, 1373.845 2668.971, 1309.478 2697.029 C 1296.464 2702.702, 1273.147 2711.430, 1266.613 2713.076 C 1263.175 2713.941, 1262 2714.717, 1262 2716.119 C 1262 2718.385, 1262.386 2718.398, 1274.185 2716.509 C 1279.308 2715.689, 1292.050 2713.865, 1302.500 2712.456 C 1356.244 2705.209, 1412.514 2693.572, 1454 2681.126 C 1487.773 2670.993, 1535.033 2655.832, 1551.500 2649.846 C 1596.184 2633.605, 1612.887 2627.277, 1629.500 2620.297 C 1639.400 2616.138, 1652.366 2610.759, 1658.314 2608.345 C 1673.033 2602.370, 1691.527 2594.144, 1708.805 2585.888 C 1716.732 2582.099, 1723.416 2579, 1723.657 2579 C 1723.899 2579, 1728.294 2577.025, 1733.425 2574.611 C 1738.556 2572.198, 1745.622 2568.959, 1749.127 2567.415 C 1758.041 2563.488, 1830.442 2527.277, 1836.384 2523.773 C 1839.071 2522.189, 1851.221 2515.670, 1863.384 2509.286 C 1885.318 2497.775, 1936.742 2468.684, 1955 2457.459 C 1960.225 2454.247, 1973.500 2446.164, 1984.500 2439.498 C 1995.500 2432.831, 2009.450 2424.284, 2015.500 2420.503 C 2021.550 2416.723, 2030.550 2411.180, 2035.500 2408.185 C 2053.104 2397.537, 2098.495 2367.755, 2122.500 2351.105 C 2152.314 2330.425, 2203.637 2294.139, 2214.500 2286.060 C 2217.250 2284.015, 2224.675 2278.579, 2231 2273.981 C 2249.524 2260.513, 2276.528 2240.383, 2290 2230 C 2315.177 2210.597, 2347.696 2185.366, 2355.074 2179.511 C 2359.240 2176.205, 2368.798 2168.635, 2376.313 2162.690 C 2383.829 2156.744, 2390.545 2151.344, 2391.239 2150.690 C 2391.933 2150.035, 2396.775 2146.054, 2402 2141.842 C 2423.939 2124.156, 2476.704 2079.626, 2485 2071.795 C 2490.391 2066.707, 2524.058 2036.822, 2528 2033.627 C 2529.925 2032.066, 2534.875 2027.559, 2539 2023.611 C 2543.125 2019.662, 2550.775 2012.608, 2556 2007.935 C 2583.264 1983.551, 2639.381 1927.289, 2675.017 1888.610 C 2708.889 1851.847, 2726.109 1831.081, 2758.866 1787.500 C 2820.459 1705.552, 2859.187 1631.838, 2870.958 1574.146 C 2873.589 1561.251, 2877 1540.849, 2877 1538.007 C 2877 1535.614, 2873.752 1537.309, 2871.744 1540.750 M 3011.228 1875.750 C 3006.874 1880.563, 2998.854 1889.440, 2993.406 1895.478 C 2987.958 1901.515, 2976.943 1913.215, 2968.929 1921.478 C 2960.914 1929.740, 2948.799 1942.575, 2942.005 1950 C 2924.869 1968.728, 2798.433 2095.503, 2787.894 2104.525 C 2783.160 2108.577, 2778.794 2113.154, 2778.190 2114.696 C 2777.586 2116.238, 2774.786 2128.967, 2771.966 2142.982 C 2762.191 2191.574, 2746.815 2244.498, 2728.899 2291.220 C 2708.085 2345.500, 2691.650 2377.154, 2658.660 2426.500 C 2641.713 2451.849, 2618.988 2481.265, 2599.563 2502.994 C 2573.160 2532.530, 2535.661 2568.500, 2511.500 2587.468 C 2506 2591.786, 2498.350 2597.864, 2494.500 2600.975 C 2466.634 2623.497, 2409.489 2660.200, 2376.584 2676.712 C 2331.661 2699.254, 2284.232 2717.195, 2232 2731.401 C 2203.542 2739.141, 2153.864 2748.817, 2131.549 2750.965 C 2114.195 2752.636, 2102.759 2753.898, 2095 2754.999 C 2090.875 2755.585, 2084.284 2755.989, 2080.354 2755.898 C 2073.208 2755.733, 2073.208 2755.733, 2055.854 2767.753 C 2022.841 2790.621, 1969.573 2825.359, 1927.500 2851.457 C 1917.600 2857.599, 1904.775 2865.578, 1899 2869.189 C 1865.965 2889.844, 1813.416 2920.404, 1785 2935.484 C 1774.825 2940.884, 1761.550 2948.095, 1755.500 2951.509 C 1736.305 2962.340, 1719.660 2970.698, 1714.618 2972.037 C 1710.382 2973.162, 1709.959 2973.497, 1711.420 2974.565 C 1712.347 2975.243, 1714.769 2976.109, 1716.802 2976.489 C 1718.836 2976.870, 1732.698 2980.698, 1747.607 2984.996 C 1796.193 2999.003, 1856.107 3011.804, 1899 3017.343 C 1948.056 3023.677, 1982.085 3026.014, 2035.500 3026.717 C 2082.802 3027.340, 2105.233 3026.179, 2157 3020.430 C 2221.092 3013.312, 2271.012 3003.514, 2321.500 2988.142 C 2328.650 2985.965, 2339.900 2982.535, 2346.500 2980.520 C 2360.755 2976.169, 2397.980 2962.702, 2424.500 2952.304 C 2487.716 2927.518, 2553.765 2892.037, 2619 2847.820 C 2651.204 2825.992, 2672.756 2809.544, 2706.963 2780.686 C 2748.536 2745.614, 2804.525 2687.415, 2835.583 2646.988 C 2906.108 2555.189, 2944.257 2486.535, 2981.440 2384.500 C 2994.161 2349.592, 3005.670 2311.626, 3015.525 2272.058 C 3023.213 2241.191, 3029.432 2208.805, 3032.913 2181.500 C 3033.474 2177.100, 3034.394 2169.959, 3034.957 2165.632 C 3036.668 2152.479, 3038.808 2122.006, 3040.056 2093 C 3041.947 2049.060, 3038.953 1983.963, 3032.926 1938 C 3031.808 1929.475, 3028.892 1910.288, 3026.447 1895.363 C 3024.001 1880.438, 3022 1867.950, 3022 1867.613 C 3022 1865.241, 3018.004 1868.260, 3011.228 1875.750" stroke="none" fill="#040404" fill-rule="evenodd"/></svg>